<svg xmlns="http://www.w3.org/2000/svg" id="Layer_1" data-name="Layer 1" viewBox="0 0 111 25"><defs><style>      .cls-1 {        fill: #ab8d3e;      }      .cls-2 {        fill: #294022;      }    </style></defs><g><path class="cls-1" d="M6.2,14.41c.9,0,1.64-.73,1.64-1.64V.53h-1.17c-2.27,0-4.12,1.82-4.12,4.12h-.27V.26h13.24v4.39h-.27c0-2.26-1.83-4.12-4.12-4.12h-1.17v12.24c0,.9.73,1.64,1.64,1.64v.27h-5.4v-.27Z"></path><path class="cls-1" d="M16.09,14.41c.9,0,1.64-.73,1.64-1.64V2.17c0-.9-.73-1.64-1.64-1.64v-.27h5.4v.27c-.9,0-1.64.73-1.64,1.64v5.16h5.8V2.17c0-.91-.72-1.64-1.64-1.64v-.27h5.41v.27c-.91,0-1.64.72-1.64,1.64v10.6c0,.91.72,1.64,1.64,1.64v.27h-5.41v-.27c.91,0,1.64-.72,1.64-1.64v-5.16h-5.8v5.16c0,.9.73,1.64,1.64,1.64v.27h-5.4v-.27Z"></path><path class="cls-1" d="M29.81,14.41c.9,0,1.64-.73,1.64-1.64V2.17c0-.9-.73-1.64-1.64-1.64v-.27h10.98v4.39h-.27c0-2.26-1.83-4.12-4.12-4.12h-2.83v6.8h3.11c1.11,0,1.98-.87,1.98-1.98h.27v4.24h-.27c0-1.11-.87-1.98-1.98-1.98h-3.11v6.8h2.83c2.26,0,4.12-1.83,4.12-4.12h.27v4.39h-10.98v-.27Z"></path><path class="cls-1" d="M57.89,10.29v4.39h-10.98v-.27c.9,0,1.64-.73,1.64-1.64V2.17c0-.9-.73-1.64-1.64-1.64v-.27h5.4v.27c-.9,0-1.64.73-1.64,1.64v12.24h2.83c2.27,0,4.12-1.82,4.12-4.12h.27Z"></path><path class="cls-1" d="M57.9,7.47c0-3.97,3.19-7.21,7.21-7.21s7.22,3.19,7.22,7.21-3.2,7.21-7.22,7.21-7.21-3.19-7.21-7.21ZM62.55,1.47c-1.76,1.42-2.53,3.81-2.53,6,0,1.28.23,2.44.69,3.49.77,1.81,2.29,3.45,4.39,3.45.94,0,1.79-.31,2.56-.94,1.77-1.43,2.52-3.8,2.52-6,0-1.28-.22-2.44-.68-3.49-.77-1.81-2.3-3.45-4.4-3.45-.94,0-1.79.31-2.55.94Z"></path><path class="cls-1" d="M77.39,14.68h-5.4v-.27c.9,0,1.64-.73,1.64-1.64V2.17c0-.9-.73-1.64-1.64-1.64v-.27h10.98v4.39h-.27c0-2.26-1.83-4.12-4.12-4.12h-2.83v6.8h3.11c1.11,0,1.98-.87,1.98-1.98h.27v4.24h-.27c0-1.11-.87-1.98-1.98-1.98h-3.11v5.16c0,.9.73,1.64,1.64,1.64v.27Z"></path><path class="cls-1" d="M88.5,14.41c.9,0,1.64-.73,1.64-1.64V.53h-1.17c-2.27,0-4.12,1.82-4.12,4.12h-.27V.26h13.24v4.39h-.27c0-2.26-1.83-4.12-4.12-4.12h-1.17v12.24c0,.9.73,1.64,1.64,1.64v.27h-5.4v-.27Z"></path><path class="cls-1" d="M105.21,6.9c1.29.51,2.86,1.25,3.39,2.6.17.54.17,1.11-.02,1.7-.54,1.7-2.2,3.27-4,3.45-.5.06-.89.07-1.17.05-.16,0-.44-.03-.84-.09-1.18-.18-2.34-.81-3.14-1.7-.13-.13-.28-.17-.44-.11-.17.07-.25.19-.25.37h-.27v-3.7h.27c.12.91.29,1.61.51,2.07.07.2.24.51.49.94.25.43.58.79,1,1.09.02.01.03.02.04.03.02.01.03.01.04.02s.02.01.02.01c.34.2.95.51,1.35.57.23.07.57.12,1.04.16s.97-.05,1.53-.25c.87-.4,1.59-1.11,1.86-2.05.05-.14.09-.36.13-.67.03-.3-.03-.64-.17-1.02-.14-.34-.41-.63-.81-.87-.4-.25-1.04-.56-1.9-.95-.98-.43-1.95-.88-2.89-1.38-.53-.28-.92-.52-1.18-.72-.56-.44-.98-1.22-1.05-1.92-.05-.41-.06-.67-.04-.79.05-.51.18-.96.4-1.33.62-1.05,1.69-1.89,2.92-2.06.56-.08.97-.11,1.19-.08,1.2.07,2.3.49,3.21,1.29.12.09.25.14.37.14.32,0,.55-.22.55-.55h.28v3.7h-.28c.01-.23-.03-.57-.13-1.02-.16-.8-.62-1.53-1.18-2.12-.25-.28-.61-.54-1.08-.77-.35-.22-1.16-.42-1.6-.42-.63,0-1.12.16-1.66.43-.66.34-1.23.87-1.39,1.63-.07.51.02.98.29,1.39.26.42.56.76.88,1.03.32.27.52.43.62.48.72.47,1.9.99,2.7,1.29.08.03.14.05.19.07.06.03.13.05.2.08Z"></path></g><g><path class="cls-2" d="M33.58,20.28v3.93h1.21v.46h-1.7v-4.39h.49Z"></path><path class="cls-2" d="M37.87,23.43h-1.87l-.53,1.24h-.54l2.02-4.61,1.97,4.61h-.54l-.51-1.24ZM37.68,22.97l-.74-1.76-.75,1.76h1.49Z"></path><path class="cls-2" d="M41.88,20.28c.44,0,.81.05,1.11.31.32.28.4.67.4.94,0,.62-.39,1.23-1.39,1.23h-.43v1.91h-.49v-4.39h.8ZM41.57,22.3h.4c.58,0,.93-.29.93-.8,0-.7-.65-.76-.97-.76h-.36v1.56Z"></path><path class="cls-2" d="M44.57,20.28v3.93h1.21v.46h-1.7v-4.39h.49Z"></path><path class="cls-2" d="M48.87,23.43h-1.87l-.53,1.24h-.54l2.02-4.61,1.97,4.61h-.54l-.51-1.24ZM48.68,22.97l-.74-1.76-.75,1.76h1.49Z"></path><path class="cls-2" d="M52.68,22.46h1.83v.11c0,.49-.14,1.01-.42,1.39-.13.18-.63.79-1.63.79-1.3,0-2.28-.99-2.28-2.27s.98-2.27,2.29-2.27c.42,0,.92.11,1.34.43.2.15.38.35.51.52l-.36.33c-.13-.18-.27-.34-.42-.45-.21-.17-.54-.37-1.07-.37-1.06,0-1.8.8-1.8,1.82,0,1.2.96,1.81,1.79,1.81.59,0,1.09-.3,1.34-.74.08-.14.16-.35.18-.63h-1.3v-.46Z"></path><path class="cls-2" d="M57.68,20.74h-1.79v1.3h1.74v.46h-1.74v1.71h1.79v.46h-2.28v-4.39h2.28v.46Z"></path><path class="cls-2" d="M62.08,21.15c-.06-.12-.16-.25-.26-.33-.09-.07-.24-.15-.49-.15-.43,0-.74.27-.74.68,0,.17.05.27.16.38.13.13.3.2.46.28l.42.18c.26.11.49.23.68.42.22.22.32.48.32.8,0,.81-.6,1.35-1.39,1.35-.29,0-.65-.06-.96-.36-.22-.21-.35-.51-.41-.78l.47-.13c.03.23.14.43.26.56.19.19.41.24.63.24.6,0,.88-.43.88-.87,0-.2-.06-.37-.22-.51-.13-.12-.3-.2-.53-.3l-.4-.18c-.17-.08-.39-.17-.59-.36-.19-.18-.3-.39-.3-.72,0-.68.52-1.13,1.23-1.13.27,0,.49.05.7.2.18.12.33.3.43.49l-.39.26Z"></path><path class="cls-2" d="M63.29,22.48c0-1.31,1.02-2.27,2.29-2.27s2.29.96,2.29,2.27-1.01,2.27-2.29,2.27-2.29-.97-2.29-2.27ZM63.79,22.48c0,1.01.8,1.81,1.79,1.81s1.79-.8,1.79-1.81-.8-1.81-1.79-1.81-1.79.8-1.79,1.81Z"></path><path class="cls-2" d="M69.25,22.97c0,.37,0,.77.35,1.07.18.15.48.25.72.25s.55-.1.72-.25c.35-.3.35-.7.35-1.07v-2.69h.49v2.83c0,.37-.04.72-.28,1.05-.26.36-.72.59-1.28.59s-1.02-.23-1.28-.59c-.24-.33-.28-.69-.28-1.05v-2.83h.49v2.69Z"></path><path class="cls-2" d="M74.1,20.74v3.93h-.49v-3.93h-1.07v-.46h2.62v.46h-1.07Z"></path><path class="cls-2" d="M76.31,22.06h2.25v-1.79h.49v4.39h-.49v-2.15h-2.25v2.15h-.49v-4.39h.49v1.79Z"></path></g><rect class="cls-2" x="2.28" y="22.2" width="24.74" height=".41"></rect><rect class="cls-2" x="85.13" y="22.2" width="23.6" height=".41"></rect></svg>